<?xml version="1.0" encoding="utf-8"?>
<!-- Generator: Adobe Illustrator 27.5.0, SVG Export Plug-In . SVG Version: 6.00 Build 0)  -->
<svg version="1.1" id="Layer_1" xmlns="http://www.w3.org/2000/svg" xmlns:xlink="http://www.w3.org/1999/xlink" x="0px" y="0px"
	 viewBox="0 0 512 512" style="enable-background:new 0 0 512 512;" xml:space="preserve">
<style type="text/css">
	.st0{fill:#FFFFFF;}
</style>
<g id="Logo">
	<path class="st0" d="M237.25,123.1c0,0-3.23,2.59-7.11,4.53c-3.88,2.59-11.64,7.76-17.46,11.64c-9.7,6.47-11.64,8.41-20.69,16.17
		l-9.7,9.05l-8.41,10.35c-8.41,9.7-9.05,10.99-16.17,21.99c-6.47,9.7-7.76,12.93-13.58,23.28c-3.23,6.47-7.11,14.23-7.76,16.17
		c-0.65,1.94-3.23,7.76-5.17,12.93c-3.23,8.41-3.23,9.7-6.47,21.99l-3.23,13.58l-1.29,12.93l-1.29,12.93v14.23
		c0,13.58,1.29,40.1,1.94,40.1c0.65,0,80.19-38.8,80.19-38.8s-0.65-4.53-1.94-9.7c-3.23-14.87-3.23-14.87-5.17-28.45l-1.94-12.93
		v-12.93v-12.93l1.29-13.58c1.29-11.64,1.94-14.87,3.23-21.34c4.53-18.75,4.53-19.4,9.05-32.34c4.53-12.29,4.53-12.29,10.99-24.57
		c4.53-9.05,7.76-14.87,12.93-22.63C234.66,128.28,237.89,123.1,237.25,123.1C238.54,122.46,237.89,122.46,237.25,123.1z"/>
	<path class="st0" d="M251.47,88.83c0,6.47-0.65,20.69-0.65,30.4c0,10.35-0.65,27.16-0.65,37.51c0,10.35-0.65,27.81-0.65,38.16
		c0,10.35-0.65,27.81-0.65,38.16c0,10.35-0.65,27.16-0.65,38.16c0,10.35-0.65,27.81-0.65,37.51c0,9.7-0.65,27.81-0.65,40.1
		s-0.65,23.93-0.65,26.51v4.53h-83.42c-45.92,0-83.42,0-83.42,0s6.47,8.41,13.58,17.46c7.76,9.05,9.05,10.35,18.11,19.4l9.7,9.05
		l10.99,7.76l10.99,7.76l12.29,6.47c11.64,5.82,12.29,6.47,24.57,10.99l12.29,4.53l12.93,3.23l12.93,3.23l13.58,1.29l13.58,1.29
		l13.58-0.65l13.58-0.65l13.58-1.94l13.58-1.94l12.93-3.88l12.93-3.88l12.93-5.17l12.93-5.17l11.64-7.11l11.64-7.11l9.7-7.76
		c12.29-10.35,24.57-21.99,38.8-36.86c5.17-5.82,9.7-10.35,9.7-10.35s-37.51,0-84.07,0h-84.07v-13.58v-13.58l61.44-11.64
		c33.63-6.47,65.32-12.29,69.84-13.58l9.05-1.94l-8.41-8.41c-7.76-7.76-9.05-9.7-16.17-19.4c-7.76-10.35-8.41-10.99-14.87-21.99
		c-9.7-16.81-16.81-31.69-22.63-47.21c-2.59-6.47-4.53-12.29-5.17-12.93c0-0.65-1.94-7.11-3.88-14.23l-3.23-13.58l-1.29-12.93
		c-1.94-16.81-2.59-31.69-2.59-53.03c0-7.76,0-14.23,0-14.23s-14.87,7.11-32.34,15.52s-32.34,15.52-32.98,15.52
		s-0.65-1.94-1.29-33.63c0-9.7-0.65-19.4-0.65-22.63v-5.17h-3.88h-3.88V88.83z M113.73,403.13h285.2l-53.03,32.34l-97.01,25.22
		l-84.72-19.4l-18.75-18.11"/>
	<path class="st0" d="M464.24,198.12c-1.94-5.82-7.76-9.7-13.58-7.76s-9.7,7.76-7.76,13.58c4.53,16.81,7.11,34.28,7.11,51.74
		c0,106.71-86.66,193.36-193.36,193.36S62.64,362.38,62.64,255.68S149.29,62.31,256,62.31c45.27,0,89.25,16.17,123.52,44.62
		c-1.29,3.23-1.94,6.47-1.94,10.35c0,14.87,12.29,27.16,27.16,27.16s27.16-12.29,27.16-27.16s-12.29-27.16-27.16-27.16
		c-2.59,0-5.82,0.65-8.41,1.29c-38.8-32.98-88.6-51.74-140.33-51.74c-118.99,0-216,97.01-216,216s97.01,216,216,216
		s216-97.01,216-216C472,236.28,469.41,216.87,464.24,198.12z"/>
</g>
</svg>
