<?xml version="1.0" encoding="utf-8"?>
<!-- Generator: Adobe Illustrator 27.5.0, SVG Export Plug-In . SVG Version: 6.00 Build 0)  -->
<svg version="1.1" xmlns="http://www.w3.org/2000/svg" xmlns:xlink="http://www.w3.org/1999/xlink" x="0px" y="0px"
	 viewBox="0 0 226.5 87" style="enable-background:new 0 0 226.5 87;" xml:space="preserve">
<style type="text/css">
	.st0{fill:#FFFFFF;}
</style>
<g id="Layer_2">
</g>
<g id="Layer_4">
	<g id="Logo">
		<path class="st0" d="M41.8,21.4c0,0-0.5,0.4-1.1,0.7c-0.6,0.4-1.8,1.2-2.7,1.8c-1.5,1-1.8,1.3-3.2,2.5l-1.5,1.4l-1.3,1.6
			c-1.3,1.5-1.4,1.7-2.5,3.4c-1,1.5-1.2,2-2.1,3.6c-0.5,1-1.1,2.2-1.2,2.5s-0.5,1.2-0.8,2c-0.5,1.3-0.5,1.5-1,3.4l-0.5,2.1l-0.2,2
			l-0.2,2l0,2.2c0,2.1,0.2,6.2,0.3,6.2c0.1,0,12.4-6,12.4-6c0,0-0.1-0.7-0.3-1.5c-0.5-2.3-0.5-2.3-0.8-4.4l-0.3-2l0-2l0-2l0.2-2.1
			c0.2-1.8,0.3-2.3,0.5-3.3c0.7-2.9,0.7-3,1.4-5c0.7-1.9,0.7-1.9,1.7-3.8c0.7-1.4,1.2-2.3,2-3.5C41.4,22.2,41.9,21.4,41.8,21.4
			C42,21.3,41.9,21.3,41.8,21.4z"/>
		<path class="st0" d="M44,16.1c0,1-0.1,3.2-0.1,4.7c0,1.6-0.1,4.2-0.1,5.8c0,1.6-0.1,4.3-0.1,5.9c0,1.6-0.1,4.3-0.1,5.9
			c0,1.6-0.1,4.2-0.1,5.9c0,1.6-0.1,4.3-0.1,5.8c0,1.5-0.1,4.3-0.1,6.2s-0.1,3.7-0.1,4.1l0,0.7l-12.9,0c-7.1,0-12.9,0-12.9,0
			c0,0,1,1.3,2.1,2.7c1.2,1.4,1.4,1.6,2.8,3l1.5,1.4l1.7,1.2l1.7,1.2l1.9,1c1.8,0.9,1.9,1,3.8,1.7l1.9,0.7l2,0.5l2,0.5l2.1,0.2
			l2.1,0.2l2.1-0.1l2.1-0.1l2.1-0.3l2.1-0.3l2-0.6l2-0.6l2-0.8l2-0.8l1.8-1.1l1.8-1.1l1.5-1.2c1.9-1.6,3.8-3.4,6-5.7
			c0.8-0.9,1.5-1.6,1.5-1.6c0,0-5.8,0-13,0h-13l0-2.1l0-2.1l9.5-1.8c5.2-1,10.1-1.9,10.8-2.1l1.4-0.3l-1.3-1.3
			c-1.2-1.2-1.4-1.5-2.5-3c-1.2-1.6-1.3-1.7-2.3-3.4c-1.5-2.6-2.6-4.9-3.5-7.3c-0.4-1-0.7-1.9-0.8-2c0-0.1-0.3-1.1-0.6-2.2l-0.5-2.1
			l-0.2-2c-0.3-2.6-0.4-4.9-0.4-8.2c0-1.2,0-2.2,0-2.2c0,0-2.3,1.1-5,2.4c-2.7,1.3-5,2.4-5.1,2.4c-0.1,0-0.1-0.3-0.2-5.2
			c0-1.5-0.1-3-0.1-3.5l0-0.8h-0.6H44L44,16.1z M22.7,64.7h44.1l-8.2,5l-15,3.9l-13.1-3l-2.9-2.8"/>
		<path class="st0" d="M76.9,33c-0.3-0.9-1.2-1.5-2.1-1.2c-0.9,0.3-1.5,1.2-1.2,2.1c0.7,2.6,1.1,5.3,1.1,8
			c0,16.5-13.4,29.9-29.9,29.9S14.8,58.4,14.8,41.9C14.8,25.4,28.2,12,44.7,12c7,0,13.8,2.5,19.1,6.9c-0.2,0.5-0.3,1-0.3,1.6
			c0,2.3,1.9,4.2,4.2,4.2c2.3,0,4.2-1.9,4.2-4.2s-1.9-4.2-4.2-4.2c-0.4,0-0.9,0.1-1.3,0.2c-6-5.1-13.7-8-21.7-8
			c-18.4,0-33.4,15-33.4,33.4c0,18.4,15,33.4,33.4,33.4s33.4-15,33.4-33.4C78.1,38.9,77.7,35.9,76.9,33z"/>
	</g>
	<g>
		<path class="st0" d="M102.2,28.1c0,0.1-0.1,0.2-0.2,0.2c-0.3,0-1.4-0.1-3.3-0.2c0,1.8-0.1,3.1-0.1,3.8c0,0.9,0,2.1,0.1,3.9
			c0.1,1.7,0.1,3,0.1,3.9c0,0.1,0,0.2-0.1,0.3c0,0-0.1,0-0.3,0.1c-0.4,0.1-1.1,0.1-1.9,0.1c-0.9,0-1.6,0-2-0.1
			c-0.2,0-0.3-0.1-0.3-0.3c0-0.9,0-2.1,0.1-3.9s0.1-3,0.1-3.9c0-0.6,0-1.8-0.1-3.8c-1.5,0.1-2.6,0.2-3.5,0.2c-0.1,0-0.2,0-0.2-0.1
			c0-0.1,0.1-0.4,0.2-0.8c0.1-0.5,0.2-0.8,0.2-0.9c0-0.3,0-0.7,0.1-1c0.1-0.5,0.1-0.8,0.3-0.8c0,0,0.1,0,0.2,0
			c1.2,0.2,2.9,0.2,5.2,0.2c0.7,0,1.9-0.1,3.6-0.2c0.9-0.1,1.4-0.1,1.4-0.1c0.1,0,0.2,0,0.3,0c0,0,0,0.1,0,0.2c0,0.2,0,0.5,0,0.8
			c0,0.4,0,0.7,0,0.8c0,0.2,0,0.4,0.1,0.8C102.1,27.6,102.2,27.9,102.2,28.1z"/>
		<path class="st0" d="M113.2,34.1c0,0.7-0.2,1.2-0.7,1.3c-0.1,0-0.8,0.1-2.3,0.2c-0.9,0.1-2.1,0.2-3.8,0.3c0.1,0.5,0.4,0.8,0.9,1.1
			c0.4,0.2,0.9,0.3,1.4,0.3c0.6,0,1.3-0.2,2-0.5c0.3-0.2,0.6-0.3,0.8-0.5c0.2,0.1,0.4,0.4,0.8,1.1c0.4,0.7,0.5,1.1,0.5,1.3
			c0,0.1-0.1,0.1-0.2,0.3c-0.9,1-2.3,1.4-4.1,1.4c-1.7,0-3.1-0.5-4.2-1.5c-1.1-1-1.6-2.4-1.6-4.1c0-1.7,0.5-3,1.5-4.1
			c1-1.1,2.3-1.7,4-1.7c1.4,0,2.6,0.5,3.6,1.5C112.8,31.5,113.2,32.7,113.2,34.1z M109.4,33.4c0-0.5-0.2-0.8-0.5-1.2
			s-0.7-0.5-1.1-0.5c-0.5,0-0.8,0.2-1.1,0.6c-0.3,0.4-0.4,0.8-0.4,1.3c0,0.2,0.1,0.3,0.3,0.3c0.5,0,1.4-0.1,2.5-0.3
			C109.3,33.6,109.4,33.5,109.4,33.4z"/>
		<path class="st0" d="M121.7,32.9c0,0-0.2-0.1-0.7-0.2s-0.8-0.2-1.1-0.2c-0.6,0-1.2,0.2-1.5,0.6c-0.4,0.4-0.6,0.9-0.6,1.6
			c0,0.7,0.2,1.2,0.6,1.6c0.4,0.4,1,0.6,1.6,0.6c0.3,0,0.7-0.1,1.1-0.2c0.4-0.2,0.6-0.2,0.6-0.2c0.1,0,0.3,0.5,0.5,1.4
			c0.2,0.8,0.3,1.4,0.3,1.7s-0.5,0.5-1.4,0.7c-0.7,0.2-1.3,0.2-1.7,0.2c-1.6,0-2.9-0.5-4-1.6c-1-1.1-1.6-2.4-1.6-4
			c0-1.6,0.5-2.9,1.6-4c1-1.1,2.4-1.6,4-1.6c1.1,0,2,0.2,2.9,0.7c0.2,0.1,0.3,0.2,0.3,0.3c0,0.1-0.1,0.5-0.3,1.3
			c-0.2,0.7-0.3,1.2-0.4,1.3S121.7,32.9,121.7,32.9z"/>
		<path class="st0" d="M134.6,32.1l0,7.5c0,0.3-0.1,0.4-0.3,0.4c-0.2,0-0.8,0-1.6,0c-0.8,0-1.4,0-1.7-0.1c-0.2,0-0.4-0.2-0.4-0.5
			c0-0.6,0-1.6,0-2.8s0-2.2,0-2.8c0-0.9-0.4-1.3-1.3-1.3c-0.3,0-0.6,0.1-1,0.3c-0.4,0.3-0.6,0.5-0.6,0.8v2.7c0,0.3,0,0.9,0,1.6
			c0,0.7,0,1.2,0,1.6c0,0.3-0.1,0.4-0.3,0.4c-0.2,0-0.9,0-1.9,0c-0.6,0-1,0-1.3-0.1s-0.4-0.2-0.4-0.4c0-0.6,0-1.4,0-2.6
			c0-1.2,0-2,0-2.6c0-2.4,0-4.3-0.1-5.9c0-0.5,0-1.1-0.1-1.6c0-0.6-0.1-1.2-0.2-1.6c0-0.1,0-0.2,0-0.2c0-0.1,0.1-0.2,0.2-0.2
			c0.2-0.1,0.6-0.1,1-0.1c0.6,0,0.9,0,1-0.1l2-0.2c0.1,0,0.2,0.1,0.2,0.2c0,0.2,0,0.5,0,0.9c0,0.5,0,0.8,0,0.9
			c0,1.6-0.1,2.9-0.1,3.9c0,0.1,0,0.2,0.1,0.2c0,0,0.2-0.1,0.6-0.4c0.4-0.3,0.8-0.5,1.2-0.7c0.6-0.3,1.1-0.4,1.7-0.4
			c0.9,0,1.7,0.2,2.3,0.7C134.3,30.5,134.6,31.2,134.6,32.1z"/>
		<path class="st0" d="M148.2,40.1c-1,0-1.5,0-1.7,0c-0.1,0-0.3-0.1-0.3-0.3c-0.8-1.6-1.7-3.3-2.5-4.9c-1.3-2.6-2-4.1-2-4.5
			c0-0.6,0-1.4,0.1-2.6c0-1.2,0.1-2,0.1-2.6c0-0.3,0.1-0.4,0.2-0.4c0.4,0,1.1,0,2,0.1c0.9,0,1.6,0.1,2,0.1c0.2,0,0.3,0.1,0.3,0.2
			c0,0.6,0,1.5-0.1,2.7c-0.1,1.2-0.1,2.1-0.1,2.7c0,0.5,0.7,2.1,2.2,4.8c0.4-0.7,0.9-1.6,1.4-2.6c0.7-1.4,1-2.3,1-2.6
			c0-0.5,0-1.3,0-2.4s0-1.9,0-2.4c0-0.2,0-0.3,0.1-0.3h0.3c0.4,0,1,0,1.8-0.1c0.8,0,1.4-0.1,1.8-0.1c0.2,0,0.3,0.1,0.3,0.3
			c0,0.6,0,1.4,0,2.5c0,1.1,0,2,0,2.5c0,0.5-0.7,2.1-2.1,5c-0.6,1-1.4,2.6-2.5,4.7c-0.1,0.2-0.1,0.2-0.1,0.3s-0.1,0-0.3,0
			C149.6,40.1,149,40.1,148.2,40.1z"/>
		<path class="st0" d="M167,34.7c0,1.7-0.5,3-1.5,4c-1,1-2.3,1.5-4,1.5c-1.6,0-2.9-0.5-3.9-1.5s-1.5-2.3-1.5-3.9
			c0-1.7,0.5-3.1,1.5-4.1s2.3-1.6,4-1.6c1.6,0,3,0.5,4,1.5S167,33,167,34.7z M163.5,34.7c0-0.6-0.2-1.1-0.5-1.5
			c-0.4-0.4-0.8-0.7-1.4-0.7c-0.6,0-1,0.2-1.4,0.7c-0.3,0.4-0.5,0.9-0.5,1.5c0,0.6,0.2,1.1,0.5,1.5c0.4,0.5,0.8,0.7,1.4,0.7
			c0.6,0,1-0.2,1.4-0.7C163.3,35.8,163.5,35.3,163.5,34.7z"/>
		<path class="st0" d="M179.1,32.3c0,1.4,0,2.3-0.1,2.6c-0.1,0.4-0.9,1.7-2.4,3.9c-0.2,0.4-0.8,1.2-1.8,2.5
			c-1.1,1.4-1.7,2.2-1.8,2.3c-0.2,0.1-1.3,0.2-3.3,0.2c-0.3,0-0.5,0-0.6-0.1c-0.1-0.3-0.2-0.7-0.4-1.1c-0.1-0.3-0.2-0.5-0.3-0.8
			c-0.2-0.4-0.3-0.6-0.3-0.8c0-0.1,0.1-0.2,0.2-0.2c2,0,3-0.5,3-1.4c0-0.1-0.5-0.8-1.5-2.2c-1-1.4-1.6-2.3-1.7-2.7
			c-0.1-0.2-0.1-1-0.1-2.3c0-0.3,0-0.7,0-1.2s0-0.9,0-1.2c0-0.2,0.1-0.3,0.4-0.3c0.4,0,0.9,0,1.7,0c0.8,0,1.3,0,1.7,0
			c0.2,0,0.2,0.1,0.2,0.3c0,0.2,0,0.5,0,0.9c0,0.4,0,0.7,0,0.9c0,0.9,0,1.5,0,1.9c0,0.3,0.2,0.7,0.7,1.4c0.4,0.7,0.8,1.1,0.9,1.1
			c0.2,0,0.5-0.4,0.9-1.1c0.4-0.7,0.6-1.1,0.6-1.4c0.1-0.6,0.1-1.3,0.1-2.1c0-0.2,0-0.5-0.1-0.9c0-0.4-0.1-0.7-0.1-0.9
			c0-0.1,0.1-0.2,0.2-0.2c0.4,0,0.9,0,1.7,0c0.7,0,1.3,0,1.7,0c0.2,0,0.3,0.1,0.4,0.3C179,30.3,179.1,31,179.1,32.3z"/>
		<path class="st0" d="M191.3,34.6c0,0.6,0,1.4,0.1,2.5c0.1,1.1,0.1,1.9,0.1,2.5c0,0.3-0.1,0.4-0.4,0.5c-0.9,0.1-1.9,0.1-3.1,0.1
			c-0.1,0-0.2-0.2-0.3-0.6c0-0.4-0.1-0.6-0.2-0.6c-0.1,0-0.1,0.1-0.2,0.2c-0.8,0.8-1.7,1.2-2.6,1.2c-1.4,0-2.6-0.6-3.5-1.7
			c-0.9-1-1.3-2.3-1.3-3.8c0-1.7,0.5-3,1.4-4.1c0.9-1.1,2.2-1.6,3.9-1.6c1.1,0,2,0.4,2.7,1.2c0,0,0.1,0.1,0.1,0.1
			c0.1,0,0.1-0.2,0.2-0.5c0.1-0.4,0.2-0.5,0.3-0.5c0.3,0,0.8,0.1,1.5,0.2c0.7,0.1,1.2,0.3,1.5,0.4c0.1,0,0.2,0.1,0.2,0.2
			c0,0,0,0.1,0,0.2C191.4,31.7,191.3,33.1,191.3,34.6z M187.8,34.6c0-0.6-0.2-1.1-0.6-1.5s-0.9-0.6-1.5-0.6s-1.1,0.2-1.5,0.6
			c-0.4,0.4-0.6,0.9-0.6,1.5c0,0.6,0.2,1.1,0.6,1.5c0.4,0.4,0.9,0.6,1.5,0.6c0.6,0,1.1-0.2,1.5-0.6S187.8,35.3,187.8,34.6z"/>
		<path class="st0" d="M204.4,37.2c0,2.1-0.4,3.6-1.3,4.5c-0.9,0.9-2.4,1.4-4.5,1.4c-0.6,0-1.4-0.1-2.5-0.3c-1.3-0.2-2-0.5-2-0.9
			c0-0.1,0.2-0.9,0.5-2.1c0.1-0.2,0.1-0.3,0.2-0.3c0,0,0.1,0,0.1,0c1.1,0.6,2.2,0.8,3.1,0.8c0.5,0,1-0.1,1.6-0.4
			c0.6-0.3,0.9-0.7,0.9-1.2V38c-0.7,0.7-1.7,1-2.9,1c-1.4,0-2.5-0.5-3.4-1.5c-0.9-0.9-1.3-2.1-1.3-3.5c0-1.4,0.4-2.5,1.2-3.5
			c0.9-1,2-1.4,3.3-1.4c1.1,0,1.9,0.4,2.5,1.2c0.1,0.2,0.2,0.2,0.2,0.2c0.1,0,0.1-0.1,0.1-0.4c0-0.6,0.1-0.9,0.2-0.9
			c0.1,0,0.7,0.1,1.9,0.2c1.1,0.1,1.7,0.2,1.8,0.2c0.1,0,0.2,0.1,0.2,0.3c0,0.5,0,1.2,0,2.2c0,1,0,1.7,0,2.2c0,0.3,0,0.7,0,1.3
			C204.4,36.5,204.4,36.9,204.4,37.2z M200.6,34.2c0-0.5-0.2-1-0.5-1.4c-0.4-0.4-0.8-0.6-1.3-0.6c-0.5,0-1,0.2-1.3,0.6
			c-0.4,0.4-0.5,0.9-0.5,1.4c0,0.5,0.2,1,0.5,1.4c0.4,0.4,0.8,0.6,1.3,0.6c0.5,0,1-0.2,1.3-0.6C200.4,35.2,200.6,34.7,200.6,34.2z"
			/>
		<path class="st0" d="M216.2,34.1c0,0.7-0.2,1.2-0.7,1.3c-0.1,0-0.8,0.1-2.3,0.2c-0.9,0.1-2.1,0.2-3.8,0.3c0.1,0.5,0.4,0.8,0.9,1.1
			c0.4,0.2,0.9,0.3,1.4,0.3c0.6,0,1.3-0.2,2-0.5c0.3-0.2,0.6-0.3,0.8-0.5c0.2,0.1,0.4,0.4,0.8,1.1c0.4,0.7,0.5,1.1,0.5,1.3
			c0,0.1-0.1,0.1-0.2,0.3c-0.9,1-2.3,1.4-4.1,1.4c-1.7,0-3.1-0.5-4.2-1.5c-1.1-1-1.6-2.4-1.6-4.1c0-1.7,0.5-3,1.5-4.1
			c1-1.1,2.3-1.7,4-1.7c1.4,0,2.6,0.5,3.6,1.5C215.7,31.5,216.2,32.7,216.2,34.1z M212.4,33.4c0-0.5-0.2-0.8-0.5-1.2
			c-0.3-0.3-0.7-0.5-1.1-0.5c-0.5,0-0.8,0.2-1.1,0.6c-0.3,0.4-0.4,0.8-0.4,1.3c0,0.2,0.1,0.3,0.3,0.3c0.5,0,1.4-0.1,2.5-0.3
			C212.3,33.6,212.4,33.5,212.4,33.4z"/>
		<path class="st0" d="M122.4,61.8c0,1.5-0.6,2.7-1.9,3.8c-1.1,0.9-2.4,1.5-4,1.8c-0.1,0-0.1,0-0.1,0c-0.2,0-0.5-0.5-1.1-1.5
			s-0.9-1.6-0.9-1.9c0-0.1,0.1-0.1,0.2-0.2c1.1-0.2,1.8-0.4,2.1-0.6c0.8-0.4,1.1-0.9,1.1-1.7c0-0.5-0.2-1-0.7-1.6
			c-0.9-1-1.3-1.5-1.4-1.6c-0.5-0.8-0.8-1.6-0.8-2.5c0-1.3,0.6-2.4,1.8-3.3c1-0.7,2.2-1.2,3.7-1.4c0.1,0,0.1,0,0.2,0
			c0.1,0,0.2,0.1,0.3,0.3c0.2,0.5,0.6,1.5,1.3,2.9c0,0,0,0.1,0,0.1c0,0.1-0.1,0.2-0.2,0.2c-0.1,0-0.2,0-0.3,0c-0.1,0-0.2,0-0.3,0
			c-0.5,0-1,0.1-1.4,0.4c-0.5,0.3-0.7,0.7-0.7,1.2c0,0.4,0.3,1,0.8,1.6c0.9,1.2,1.4,1.8,1.4,1.8C122.2,60.2,122.4,61,122.4,61.8z"/>
		<path class="st0" d="M134.6,61.5c0,1.7-0.5,3-1.5,4c-1,1-2.3,1.5-4,1.5c-1.6,0-2.9-0.5-3.9-1.5s-1.5-2.3-1.5-3.9
			c0-1.7,0.5-3.1,1.5-4.1c1-1.1,2.3-1.6,4-1.6c1.6,0,3,0.5,4,1.5C134.1,58.5,134.6,59.8,134.6,61.5z M131.1,61.5
			c0-0.6-0.2-1.1-0.5-1.5s-0.8-0.7-1.4-0.7c-0.6,0-1,0.2-1.4,0.7c-0.3,0.4-0.5,0.9-0.5,1.5c0,0.6,0.2,1.1,0.5,1.5
			c0.4,0.5,0.8,0.7,1.4,0.7c0.6,0,1-0.2,1.4-0.7C130.9,62.6,131.1,62.1,131.1,61.5z"/>
		<path class="st0" d="M139.9,60.3c0,2,0,3.5,0,4.6c0,0.2,0,0.5,0,0.9c0,0.4,0,0.7,0,0.9c0,0.2-0.1,0.2-0.3,0.3
			c-0.3,0.1-0.9,0.1-1.8,0.1c-0.9,0-1.4,0-1.7-0.1c-0.2,0-0.3-0.1-0.3-0.3c0,0,0-0.2,0-0.5c0-0.6,0-1.6,0-2.9s0-2.3,0-2.9
			c0-3.1,0-4.4,0-4.2c0-1.6-0.1-3-0.3-4.2c0-0.1,0-0.1,0-0.2c0-0.2,0.1-0.2,0.3-0.2h3.9c0.2,0,0.3,0.1,0.3,0.2l0,0.2
			C140,55.1,139.9,57.9,139.9,60.3z"/>
		<path class="st0" d="M153.2,56.9c0,0.5,0,1.3-0.1,2.4c-0.1,1.1-0.1,1.9-0.1,2.4c0,0.5,0,1.3,0.1,2.4c0,1,0.1,1.8,0.1,2.3
			c0,0.2-0.1,0.3-0.3,0.4c-0.3,0.1-0.9,0.1-1.8,0.1c-0.8,0-1.3,0-1.7-0.1c-0.1,0-0.2-0.1-0.3-0.3c0-0.2,0-0.4-0.1-0.7
			c0-0.3-0.1-0.5-0.2-0.5c0.1,0-0.3,0.2-1.1,0.7c-0.8,0.5-1.6,0.7-2.3,0.7c-1.9,0-3.1-0.9-3.4-2.6c-0.2-0.8-0.2-2-0.2-3.5
			c0-1.7,0.1-3,0.4-3.9c0.1-0.3,0.2-0.4,0.4-0.4c0.3,0,0.8,0,1.5,0c0.7,0,1.2,0,1.5,0c0.2,0,0.3,0.1,0.3,0.3c0,0.1,0,0.1,0,0.2
			c-0.2,1-0.2,2-0.2,3c0,1.3,0,2.1,0.1,2.6c0.1,0.8,0.6,1.2,1.4,1.2c0.3,0,0.7-0.1,1-0.4s0.6-0.6,0.6-0.9c0-0.3,0-2.1,0-5.5
			c0-0.2,0-0.4,0.1-0.4c0-0.1,0.2-0.1,0.4-0.1c0.4,0,0.9,0,1.6,0c0.7,0,1.3,0,1.6,0c0.2,0,0.3,0.1,0.4,0.2
			C153.1,56.7,153.2,56.8,153.2,56.9z"/>
		<path class="st0" d="M162.2,63.6c0,0.2,0,0.5-0.1,1s-0.1,0.8-0.1,1s0,0.3-0.1,0.4c0,0.1-0.2,0.1-0.4,0.2c-0.9,0.5-2,0.8-3.1,0.8
			c-2.1,0-3.2-0.8-3.2-2.4c0-0.5,0-1.2,0.1-2.2c0-1,0.1-1.7,0.1-2.2c0-0.3-0.2-0.5-0.6-0.5c0,0-0.1,0-0.1,0c-0.1,0-0.1,0-0.1,0
			c-0.3,0-0.4-0.1-0.4-0.3c0-0.1,0-0.3,0-0.5c0-0.2,0-0.4,0-0.5c0-0.2,0-0.4,0-0.7c0-0.3,0-0.5,0-0.7c0-0.1,0.2-0.2,0.7-0.2
			c0.3,0,0.4-0.1,0.4-0.2c0-0.3,0.1-0.7,0-1.3c0-0.9,0-1.4,0-1.3c0-0.8,0.1-1.3,0.2-1.3c0.2,0,0.5,0,0.8,0.1
			c0.4,0.1,0.7,0.1,0.9,0.2c0.4,0.1,0.9,0.1,1.7,0.2c0.2,0,0.3,0.1,0.3,0.2c0,0.3,0,0.7-0.1,1.3c0,0.6-0.1,1-0.1,1.3
			c0,0.4,0.1,0.5,0.3,0.5c0.3,0,0.6,0,1.2,0c0.5,0,0.9,0,1.2,0c0.2,0,0.2,0.1,0.2,0.2c0,0.2,0,0.4-0.1,0.8c0,0.3-0.1,0.6-0.1,0.8
			c0,0.2,0,0.4,0,0.8c0,0.3,0,0.6,0,0.8c0,0.2-0.1,0.2-0.3,0.2c-0.1,0-0.4,0-0.7,0s-0.6,0-0.7,0h-0.8c-0.1,0-0.2,0.2-0.2,0.5
			c0,0.2,0,0.4,0,0.8c0,0.3,0,0.6,0,0.8c0,0.6,0.1,1,0.2,1.3c0.2,0.3,0.6,0.5,1.2,0.5c0.2,0,0.4,0,0.8-0.1c0.3-0.1,0.6-0.1,0.7-0.1
			C162.2,63.4,162.2,63.5,162.2,63.6z"/>
		<path class="st0" d="M167.4,61.8c0,0.5,0,1.3,0,2.4c0,1,0,1.8,0,2.4c0,0.2-0.1,0.2-0.3,0.3c-0.2,0-0.8,0.1-1.7,0.1
			c-0.9,0-1.4,0-1.7-0.1c-0.2,0-0.3-0.1-0.3-0.1c0,0,0-0.1,0-0.3c0-0.5,0-1.3,0-2.3c0-1,0-1.8,0-2.3c0-2.1-0.1-3.7-0.2-4.9
			c0-0.1,0-0.2,0-0.2c0-0.1,0.1-0.2,0.3-0.2c0.2,0,0.5,0,0.9,0.1c0.4,0,0.7,0.1,0.9,0.1s0.5,0,0.9-0.1c0.4,0,0.7-0.1,0.9-0.1
			c0.2,0,0.3,0.1,0.3,0.2c0,0,0,0.1,0,0.2C167.5,58.3,167.4,60,167.4,61.8z M167.7,53.7c0,1.3-0.7,1.9-2.1,1.9
			c-0.6,0-1.1-0.2-1.5-0.5c-0.4-0.3-0.7-0.8-0.7-1.4c0-0.6,0.2-1,0.7-1.4c0.4-0.3,0.9-0.5,1.5-0.5c0.6,0,1.1,0.2,1.5,0.5
			C167.5,52.7,167.7,53.2,167.7,53.7z"/>
		<path class="st0" d="M180,61.5c0,1.7-0.5,3-1.5,4c-1,1-2.3,1.5-4,1.5c-1.6,0-2.9-0.5-3.9-1.5s-1.5-2.3-1.5-3.9
			c0-1.7,0.5-3.1,1.5-4.1c1-1.1,2.3-1.6,4-1.6c1.6,0,3,0.5,4,1.5C179.5,58.5,180,59.8,180,61.5z M176.4,61.5c0-0.6-0.2-1.1-0.5-1.5
			s-0.8-0.7-1.4-0.7c-0.6,0-1,0.2-1.4,0.7c-0.3,0.4-0.5,0.9-0.5,1.5c0,0.6,0.2,1.1,0.5,1.5c0.4,0.5,0.8,0.7,1.4,0.7
			c0.6,0,1-0.2,1.4-0.7C176.3,62.6,176.4,62.1,176.4,61.5z"/>
		<path class="st0" d="M192.2,66.5c0,0.2-0.1,0.3-0.3,0.3c-0.2,0-0.7,0-1.6,0c-0.9,0-1.5,0-1.7-0.1s-0.3-0.2-0.3-0.4
			c0-0.3,0-0.9,0-1.5c0-0.7,0-1.2,0-1.6c0-0.3,0-0.7,0-1.2s0-0.9,0-1.2c0-1-0.4-1.5-1.3-1.5c-0.3,0-0.6,0.1-1,0.4
			c-0.4,0.3-0.6,0.5-0.6,0.8v5.9c0,0.2-0.1,0.4-0.3,0.4c-0.3,0-0.8,0-1.6,0c-0.9,0-1.4,0-1.7-0.1c-0.2,0-0.3-0.2-0.3-0.4
			c0-0.6,0-1.4,0-2.6c0-1.1,0-2,0-2.6c0-1.8-0.1-3.2-0.4-4.3c0-0.1,0-0.1,0-0.2c0-0.1,0.1-0.2,0.2-0.2c0.5-0.1,1.1-0.1,1.8-0.2
			c1.2-0.2,1.8-0.3,2-0.3c0.1,0,0.1,0.2,0.2,0.7s0.1,0.7,0.2,0.7c-0.1,0,0.3-0.3,1.2-0.8c0.9-0.5,1.6-0.8,2.3-0.8
			c0.9,0,1.7,0.2,2.3,0.7c0.7,0.5,1,1.2,1,2.1v3.5c0,0.5,0,1.2,0,2.1C192.2,65.3,192.2,66,192.2,66.5z"/>
	</g>
</g>
</svg>
